<?xml version="1.0" encoding="UTF-8"?>
<svg version="1.1" xmlns="http://www.w3.org/2000/svg" width="128" height="72">
<path d="M0 0 C1.32421875 2.1640625 1.32421875 2.1640625 2 4 C2.66 4 3.32 4 4 4 C4.495 6.475 4.495 6.475 5 9 C8.96 9.99 12.92 10.98 17 12 C17 13.65 17 15.3 17 17 C15.68 17 14.36 17 13 17 C13.495 17.7734375 13.495 17.7734375 14 18.5625 C15.35010176 21.85337305 15.25203471 24.47151408 15 28 C14.67 28.639375 14.34 29.27875 14 29.9375 C12.40465079 33.22790776 12.87922723 36.37681681 13 40 C8.48391177 41.73650699 4.72415088 42.25657284 -0.10351562 42.2746582 C-0.78725754 42.27976913 -1.47099945 42.28488007 -2.17546082 42.29014587 C-4.41914805 42.30396306 -6.66252547 42.30309142 -8.90625 42.30078125 C-10.47513949 42.30467191 -12.04402794 42.30900735 -13.61291504 42.31376648 C-16.89448468 42.32121129 -20.17594669 42.32094963 -23.45751953 42.31567383 C-27.653962 42.30987497 -31.84996371 42.32682841 -36.04633331 42.3500185 C-39.28406328 42.36477761 -42.52168754 42.36562471 -45.75944519 42.36250877 C-47.30633926 42.36302068 -48.85323944 42.36823379 -50.40010071 42.37832069 C-52.56585055 42.39071351 -54.7307473 42.38387785 -56.89648438 42.37231445 C-58.12637085 42.37294388 -59.35625732 42.3735733 -60.62341309 42.3742218 C-64.33495188 41.96287781 -66.78661286 40.85651412 -70 39 C-69.67 38.29875 -69.34 37.5975 -69 36.875 C-67.85501081 33.58315607 -67.57582675 31.46408158 -68 28 C-69.97106243 24.53364882 -72.12417502 21.73888093 -75 19 C-77.10437105 14.79125789 -76.2039183 10.63321998 -74.8125 6.3125 C-71.03885854 -0.58415507 -65.74340545 -1.96512833 -58.546875 -4.16796875 C-56.09171342 -4.75743116 -56.09171342 -4.75743116 -55 -6 C-38.1720575 -8.9866656 -14.81615179 -9.13704761 0 0 Z " fill="#C3632D" transform="translate(94,20)"/>
<path d="M0 0 C4 4 4 4 4 8 C18.85 8 33.7 8 49 8 C49.33 6.35 49.66 4.7 50 3 C51.640625 0.703125 51.640625 0.703125 54 -1 C57.234375 -1.390625 57.234375 -1.390625 60.75 -1.25 C61.92046875 -1.21390625 63.0909375 -1.1778125 64.296875 -1.140625 C65.18890625 -1.09421875 66.0809375 -1.0478125 67 -1 C66.855625 -0.08476563 66.71125 0.83046875 66.5625 1.7734375 C66.2840625 3.55621094 66.2840625 3.55621094 66 5.375 C65.7215625 7.15003906 65.7215625 7.15003906 65.4375 8.9609375 C64.95250335 11.81820008 64.95250335 11.81820008 65 14 C55.86374173 14.15418268 46.72741121 14.30236015 37.5909338 14.4429636 C33.34808473 14.50844459 29.10528874 14.57595997 24.86254883 14.64819336 C20.76478623 14.71788249 16.66697054 14.78213786 12.56906319 14.84269524 C11.00901787 14.8666908 9.44900092 14.89261341 7.88902092 14.92053413 C5.69681094 14.95943483 3.50459839 14.99135758 1.31225586 15.02172852 C-0.55638878 15.05170677 -0.55638878 15.05170677 -2.46278381 15.08229065 C-6.05013963 14.99883354 -9.4617238 14.57980357 -13 14 C-13 9.81398465 -12.41718211 5.95048692 -11 2 C-7.41907008 -1.38198937 -4.60201349 -1.56664289 0 0 Z " fill="#433C41" transform="translate(40,46)"/>
<path d="M0 0 C1.32421875 2.1640625 1.32421875 2.1640625 2 4 C2.66 4 3.32 4 4 4 C3.67 5.65 3.34 7.3 3 9 C2.34 9 1.68 9 1 9 C0.81824219 9.88751953 0.81824219 9.88751953 0.6328125 10.79296875 C-1.32411987 20.02065755 -1.32411987 20.02065755 -3 23 C-5.125 23.8125 -5.125 23.8125 -7 24 C-7 21.69 -7 19.38 -7 17 C-8.24735567 16.3490741 -9.49801832 15.70448331 -10.75 15.0625 C-11.44609375 14.70285156 -12.1421875 14.34320313 -12.859375 13.97265625 C-14.90224433 13.04441818 -16.81115376 12.46833422 -19 12 C-18.505 10.515 -18.505 10.515 -18 9 C-17.01 8.67 -16.02 8.34 -15 8 C-15.99 7.67 -16.98 7.34 -18 7 C-18 6.34 -18 5.68 -18 5 C-20.475 4.01 -20.475 4.01 -23 3 C-23 2.34 -23 1.68 -23 1 C-23.66 1 -24.32 1 -25 1 C-25 0.34 -25 -0.32 -25 -1 C-29.52173273 -0.62084614 -34.04223878 -0.22996846 -38.56201172 0.171875 C-40.10014195 0.30695251 -41.63855887 0.43880534 -43.17724609 0.56738281 C-45.38722472 0.75261635 -47.59591726 0.94937242 -49.8046875 1.1484375 C-50.49432587 1.20373627 -51.18396423 1.25903503 -51.89450073 1.31600952 C-55.88429929 1.62225233 -55.88429929 1.62225233 -59 4 C-60.98821313 4.39764263 -62.98944339 4.73775349 -65 5 C-65 5.66 -65 6.32 -65 7 C-65.825 7.45375 -66.65 7.9075 -67.5 8.375 C-68.325 8.91125 -69.15 9.4475 -70 10 C-70 11.32 -70 12.64 -70 14 C-70 14.66 -70 15.32 -70 16 C-70.99 15.67 -71.98 15.34 -73 15 C-74.23076923 8.6 -74.23076923 8.6 -73.0625 5.5625 C-72.711875 5.046875 -72.36125 4.53125 -72 4 C-71.01 4 -70.02 4 -69 4 C-68.34 3.34 -67.68 2.68 -67 2 C-65.01643517 1.28591666 -63.01684563 0.61382258 -61 0 C-61 -0.66 -61 -1.32 -61 -2 C-59.02 -2.33 -57.04 -2.66 -55 -3 C-55 -3.99 -55 -4.98 -55 -6 C-37.57911518 -8.16462287 -15.4834863 -9.54858951 0 0 Z " fill="#974126" transform="translate(94,20)"/>
<path d="M0 0 C0.33 0.66 0.66 1.32 1 2 C0.01 2.33 -0.98 2.66 -2 3 C-1.67 3.66 -1.34 4.32 -1 5 C-1.67546875 5.18175781 -2.3509375 5.36351562 -3.046875 5.55078125 C-3.93890625 5.80214844 -4.8309375 6.05351562 -5.75 6.3125 C-6.63171875 6.55613281 -7.5134375 6.79976562 -8.421875 7.05078125 C-11.05772505 8.02125331 -12.85407326 9.21005644 -15 11 C-15.33 10.67 -15.66 10.34 -16 10 C-16.7306539 13.98677336 -16.7306539 13.98677336 -17 18 C-15.72780266 20.02977977 -15.72780266 20.02977977 -14 21 C-14.66 19.02 -15.32 17.04 -16 15 C-12.375 12 -12.375 12 -9 12 C-9 11.34 -9 10.68 -9 10 C-8.01 9.67 -7.02 9.34 -6 9 C-6 11.31 -6 13.62 -6 16 C-5.0409375 15.87625 -5.0409375 15.87625 -4.0625 15.75 C0.40292757 16.1145247 4.00911228 18.05237724 8 20 C8 20.99 8 21.98 8 23 C9.93823179 25.39971554 10.99390037 25.99796679 14 27 C16.1875 28.9375 16.1875 28.9375 18 31 C18 31.66 18 32.32 18 33 C17.01 33 16.02 33 15 33 C15 33.66 15 34.32 15 35 C15.99 35.495 15.99 35.495 17 36 C10.5 39 10.5 39 6 39 C5.195625 37.2984375 5.195625 37.2984375 4.375 35.5625 C2.71395433 32.66300686 2.34446906 32.12459519 -0.9375 30.9375 C-4.12670316 31.00258578 -6.16400279 31.58200139 -9 33 C-9.06058594 33.61488281 -9.12117188 34.22976562 -9.18359375 34.86328125 C-9.26738281 35.67152344 -9.35117187 36.47976562 -9.4375 37.3125 C-9.51871094 38.11300781 -9.59992187 38.91351563 -9.68359375 39.73828125 C-10 42 -10 42 -11 45 C-11.99 44.67 -12.98 44.34 -14 44 C-13.67 43.29875 -13.34 42.5975 -13 41.875 C-11.85501081 38.58315607 -11.57582675 36.46408158 -12 33 C-13.97106243 29.53364882 -16.12417502 26.73888093 -19 24 C-21.10437105 19.79125789 -20.2039183 15.63321998 -18.8125 11.3125 C-14.65883216 3.72131395 -7.86363026 2.35783491 0 0 Z " fill="#B15E37" transform="translate(38,15)"/>
<path d="M0 0 C0.1875 3.625 0.1875 3.625 0 7 C2.55831243 8.43265496 4.75025709 9.19403201 7.625 9.9375 C11 11 11 11 13 14 C12.01 14.33 11.02 14.66 10 15 C10 16.32 10 17.64 10 19 C10.66 19.33 11.32 19.66 12 20 C9.89735027 22.10264973 5.57554314 21.27690374 2.6875 21.3125 C1.91470703 21.34150391 1.14191406 21.37050781 0.34570312 21.40039062 C-3.50406013 21.44342323 -5.37820819 21.46323967 -8.54296875 19.10546875 C-10 17 -10 17 -10 15 C-11.32 14.67 -12.64 14.34 -14 14 C-14 13.34 -14 12.68 -14 12 C-14.99 11.67 -15.98 11.34 -17 11 C-17 10.01 -17 9.02 -17 8 C-19.64 7.01 -22.28 6.02 -25 5 C-24.67 3.35 -24.34 1.7 -24 0 C-5.80979827 -3.87319885 -5.80979827 -3.87319885 0 0 Z " fill="#CC8258" transform="translate(62,27)"/>
<path d="M0 0 C0.495 1.485 0.495 1.485 1 3 C3.79172239 4.03316488 3.79172239 4.03316488 7.0625 4.6875 C8.16722656 4.93886719 9.27195312 5.19023437 10.41015625 5.44921875 C11.26480469 5.63097656 12.11945313 5.81273437 13 6 C13 7.65 13 9.3 13 11 C11.68 11 10.36 11 9 11 C9.495 11.7734375 9.495 11.7734375 10 12.5625 C11.35010176 15.85337305 11.25203471 18.47151408 11 22 C10.67 22.639375 10.34 23.27875 10 23.9375 C8.40465079 27.22790776 8.87922723 30.37681681 9 34 C4.46474631 35.74767069 0.69807842 36.25256115 -4.15112305 36.25878906 C-4.83968384 36.2622937 -5.52824463 36.26579834 -6.2376709 36.26940918 C-8.49579174 36.27815604 -10.75359516 36.2724045 -13.01171875 36.265625 C-14.58779459 36.26697322 -16.16387003 36.26891506 -17.73994446 36.27142334 C-21.03410829 36.27436464 -24.32816331 36.27010729 -27.62231445 36.26074219 C-31.845873 36.24932 -36.06917811 36.25593077 -40.29272747 36.26788712 C-43.54319678 36.2751086 -46.79360581 36.27281696 -50.04407692 36.26763153 C-51.60181521 36.26629729 -53.15955897 36.26793487 -54.71729088 36.27259064 C-56.89069549 36.27766375 -59.06368677 36.26993621 -61.23706055 36.25878906 C-62.47360886 36.25719788 -63.71015717 36.25560669 -64.98417664 36.25396729 C-68 36 -68 36 -71 34 C-45.26 34 -19.52 34 7 34 C6.505 32.02 6.505 32.02 6 30 C6.3654374 25.90710115 6.87137483 22.54770861 9 19 C8.01 19.185625 7.02 19.37125 6 19.5625 C1.8114735 20.16940894 -1.8374571 19.71767981 -6 19 C-7 18 -7 18 -7.17578125 15.7578125 C-6.98572993 12.77611853 -6.31394477 10.63415685 -5.1875 7.875 C-4.85105469 7.02679688 -4.51460938 6.17859375 -4.16796875 5.3046875 C-3.02244576 3.04429096 -1.89202115 1.6589068 0 0 Z " fill="#B2A19C" transform="translate(98,26)"/>
<path d="M0 0 C0.66 0.99 1.32 1.98 2 3 C1.67 3.66 1.34 4.32 1 5 C1.598125 4.773125 2.19625 4.54625 2.8125 4.3125 C3.534375 4.209375 4.25625 4.10625 5 4 C6.75 5.4375 6.75 5.4375 8 7 C7.0409375 7.86625 7.0409375 7.86625 6.0625 8.75 C3.65903372 11.01303649 3.65903372 11.01303649 3 15 C-10.53 15 -24.06 15 -38 15 C-37.01 14.34 -36.02 13.68 -35 13 C-34.34 12.34 -33.68 11.68 -33 11 C-33 10.34 -33 9.68 -33 9 C-32.43603516 9.07629639 -31.87207031 9.15259277 -31.29101562 9.23120117 C-28.69622249 9.57042628 -26.09862923 9.87909527 -23.5 10.1875 C-22.613125 10.30802734 -21.72625 10.42855469 -20.8125 10.55273438 C-14.5777873 11.26330825 -10.72324257 10.55870192 -5 8 C-4.34 8 -3.68 8 -3 8 C-3 7.34 -3 6.68 -3 6 C-2.34 6 -1.68 6 -1 6 C-0.67 4.02 -0.34 2.04 0 0 Z " fill="#B55123" transform="translate(86,39)"/>
<path d="M0 0 C1.17046875 0.03609375 2.3409375 0.0721875 3.546875 0.109375 C4.43890625 0.15578125 5.3309375 0.2021875 6.25 0.25 C6.105625 1.16523437 5.96125 2.08046875 5.8125 3.0234375 C5.626875 4.21195313 5.44125 5.40046875 5.25 6.625 C5.064375 7.80835938 4.87875 8.99171875 4.6875 10.2109375 C4.20250335 13.06820008 4.20250335 13.06820008 4.25 15.25 C2.35489301 15.33160748 0.45875496 15.38946459 -1.4375 15.4375 C-3.02111328 15.48970703 -3.02111328 15.48970703 -4.63671875 15.54296875 C-8.13158604 15.21409165 -9.97938553 14.37293836 -12.75 12.25 C-12.75 11.59 -12.75 10.93 -12.75 10.25 C-15.06 10.25 -17.37 10.25 -19.75 10.25 C-19.75 9.92 -19.75 9.59 -19.75 9.25 C-17.11 9.25 -14.47 9.25 -11.75 9.25 C-11.6675 8.5075 -11.585 7.765 -11.5 7 C-9.7724206 0.66554219 -6.12548331 -0.24501933 0 0 Z " fill="#4F4145" transform="translate(100.75,44.75)"/>
<path d="M0 0 C1.32421875 2.1640625 1.32421875 2.1640625 2 4 C2.66 4 3.32 4 4 4 C4 4.66 4 5.32 4 6 C3.45859375 5.83628906 2.9171875 5.67257813 2.359375 5.50390625 C-0.40222593 4.91409413 -2.92818139 4.90390692 -5.75 4.9375 C-6.73484375 4.94652344 -7.7196875 4.95554687 -8.734375 4.96484375 C-9.85585937 4.98224609 -9.85585937 4.98224609 -11 5 C-11 4.01 -11 3.02 -11 2 C-16.74377764 -0.45071615 -21.22569124 -1.4257643 -27.4375 -1.29296875 C-28.20304199 -1.28872391 -28.96858398 -1.28447906 -29.75732422 -1.28010559 C-32.17192687 -1.26348328 -34.58565511 -1.22586506 -37 -1.1875 C-38.64972742 -1.17243178 -40.29946809 -1.15874714 -41.94921875 -1.14648438 C-45.9664762 -1.11363417 -49.98309052 -1.06196973 -54 -1 C-54 -1.33 -54 -1.66 -54 -2 C-52.93072266 -2.09087891 -52.93072266 -2.09087891 -51.83984375 -2.18359375 C-50.88207031 -2.26738281 -49.92429687 -2.35117187 -48.9375 -2.4375 C-47.99777344 -2.51871094 -47.05804688 -2.59992187 -46.08984375 -2.68359375 C-42.71570315 -3.02911257 -39.35769622 -3.52032911 -36 -4 C-42.27 -4.33 -48.54 -4.66 -55 -5 C-55 -5.33 -55 -5.66 -55 -6 C-37.57911518 -8.16462287 -15.4834863 -9.54858951 0 0 Z " fill="#806F6F" transform="translate(94,20)"/>
<path d="M0 0 C0.85464844 -0.01417969 1.70929688 -0.02835938 2.58984375 -0.04296875 C5.20159303 0.20046444 6.81750652 0.8696732 9.0625 2.1875 C8.7325 3.1775 8.4025 4.1675 8.0625 5.1875 C7.4025 5.1875 6.7425 5.1875 6.0625 5.1875 C5.94132812 5.77917969 5.82015625 6.37085938 5.6953125 6.98046875 C3.73838013 16.20815755 3.73838013 16.20815755 2.0625 19.1875 C-0.0625 20 -0.0625 20 -1.9375 20.1875 C-1.9375 17.8775 -1.9375 15.5675 -1.9375 13.1875 C-3.18485567 12.5365741 -4.43551832 11.89198331 -5.6875 11.25 C-6.73164062 10.71052734 -6.73164062 10.71052734 -7.796875 10.16015625 C-9.83974433 9.23191818 -11.74865376 8.65583422 -13.9375 8.1875 C-13.9375 7.5275 -13.9375 6.8675 -13.9375 6.1875 C-11.2975 6.1875 -8.6575 6.1875 -5.9375 6.1875 C-5.9375 4.8675 -5.9375 3.5475 -5.9375 2.1875 C-6.5975 1.8575 -7.2575 1.5275 -7.9375 1.1875 C-5.02663331 0.2172111 -3.03526315 0.02282153 0 0 Z " fill="#7E311B" transform="translate(88.9375,23.8125)"/>
<path d="M0 0 C0.99 0.33 1.98 0.66 3 1 C3 1.99 3 2.98 3 4 C4.93823179 6.39971554 5.99390037 6.99796679 9 8 C11.1875 9.9375 11.1875 9.9375 13 12 C13 12.66 13 13.32 13 14 C12.01 14 11.02 14 10 14 C10 14.66 10 15.32 10 16 C10.66 16.33 11.32 16.66 12 17 C5.5 20 5.5 20 1 20 C-0.41601562 17.31445312 -0.41601562 17.31445312 -1.83203125 14.62890625 C-2.99019799 12.67732013 -2.99019799 12.67732013 -6 12 C-6 11.01 -6 10.02 -6 9 C-4.68 8.34 -3.36 7.68 -2 7 C-2 5.02 -2 3.04 -2 1 C-1.34 0.67 -0.68 0.34 0 0 Z " fill="#BE7452" transform="translate(43,34)"/>
<path d="M0 0 C0.33 0.66 0.66 1.32 1 2 C0.01 2.33 -0.98 2.66 -2 3 C-1.67 3.66 -1.34 4.32 -1 5 C-1.67546875 5.18175781 -2.3509375 5.36351562 -3.046875 5.55078125 C-3.93890625 5.80214844 -4.8309375 6.05351562 -5.75 6.3125 C-6.63171875 6.55613281 -7.5134375 6.79976562 -8.421875 7.05078125 C-11.05772505 8.02125331 -12.85407326 9.21005644 -15 11 C-15.33 10.67 -15.66 10.34 -16 10 C-16.7306539 13.98677336 -16.7306539 13.98677336 -17 18 C-15.72780266 20.02977977 -15.72780266 20.02977977 -14 21 C-14.66 19.02 -15.32 17.04 -16 15 C-14.1875 13.4375 -14.1875 13.4375 -12 12 C-11.01 12.33 -10.02 12.66 -9 13 C-9.99 13.495 -9.99 13.495 -11 14 C-11.99847037 18.62927172 -12.013244 22.38411065 -11 27 C-11.66 27 -12.32 27 -13 27 C-12.67 28.32 -12.34 29.64 -12 31 C-10.35 31.33 -8.7 31.66 -7 32 C-7.99 32.495 -7.99 32.495 -9 33 C-9.43021613 35.02520515 -9.43021613 35.02520515 -9.5625 37.375 C-9.78753088 40.19477465 -10.09554568 42.28663703 -11 45 C-11.99 44.67 -12.98 44.34 -14 44 C-13.67 43.29875 -13.34 42.5975 -13 41.875 C-11.85501081 38.58315607 -11.57582675 36.46408158 -12 33 C-13.97106243 29.53364882 -16.12417502 26.73888093 -19 24 C-21.10437105 19.79125789 -20.2039183 15.63321998 -18.8125 11.3125 C-14.65883216 3.72131395 -7.86363026 2.35783491 0 0 Z " fill="#B8988D" transform="translate(38,15)"/>
<path d="M0 0 C0.70576172 0.14743652 1.41152344 0.29487305 2.13867188 0.44677734 C7.23750442 1.24230004 12.17766445 1.43586504 17.32617188 1.49365234 C19.01628242 1.52191932 20.70638657 1.55057131 22.39648438 1.57958984 C25.02116225 1.62114147 27.64562657 1.65809311 30.27050781 1.68408203 C32.83112856 1.71153416 35.39088185 1.75732389 37.95117188 1.80615234 C38.74068237 1.80940521 39.53019287 1.81265808 40.34362793 1.81600952 C42.55078125 1.86621094 42.55078125 1.86621094 46.10742188 2.28271484 C46.76742187 3.27271484 47.42742187 4.26271484 48.10742188 5.28271484 C30.28742188 5.28271484 12.46742187 5.28271484 -5.89257812 5.28271484 C-1.89257812 0.28271484 -1.89257812 0.28271484 0 0 Z " fill="#050506" transform="translate(44.892578125,54.71728515625)"/>
<path d="M0 0 C4 4 4 4 4 8 C2.04083611 10.34973675 -0.17275618 11.85271265 -3 13 C-6.18974994 12.83849367 -9.00009998 12.06799162 -12 11 C-12.49065421 4.62149533 -12.49065421 4.62149533 -10.125 1.625 C-6.38582576 -1.23436853 -4.56984475 -1.27955653 0 0 Z " fill="#444652" transform="translate(40,46)"/>
<path d="M0 0 C0.79921875 0.19464844 1.5984375 0.38929687 2.421875 0.58984375 C3.32679687 0.82380859 3.32679687 0.82380859 4.25 1.0625 C4.25 1.7225 4.25 2.3825 4.25 3.0625 C5.9 3.0625 7.55 3.0625 9.25 3.0625 C6.5 9.9375 6.5 9.9375 4.25 11.0625 C-0.94443385 11.54570315 -4.1634199 10.26405845 -8.75 8.0625 C-8.42 7.0725 -8.09 6.0825 -7.75 5.0625 C-5.44 5.0625 -3.13 5.0625 -0.75 5.0625 C-0.75 4.4025 -0.75 3.7425 -0.75 3.0625 C-1.36488281 3.206875 -1.97976562 3.35125 -2.61328125 3.5 C-3.42152344 3.685625 -4.22976562 3.87125 -5.0625 4.0625 C-6.26326172 4.3409375 -6.26326172 4.3409375 -7.48828125 4.625 C-9.75 5.0625 -9.75 5.0625 -12.75 5.0625 C-9.63804554 0.39456831 -9.63804554 0.39456831 -6.921875 -0.62109375 C-4.34928931 -0.99587692 -2.51512985 -0.62878246 0 0 Z " fill="#D28C60" transform="translate(61.75,34.9375)"/>
<path d="M0 0 C1.32 0 2.64 0 4 0 C4.33 1.32 4.66 2.64 5 4 C5.53625 3.67 6.0725 3.34 6.625 3 C9.5391061 1.77300796 11.86867708 1.85766714 15 2 C15 2.66 15 3.32 15 4 C13.865625 4.12375 12.73125 4.2475 11.5625 4.375 C9.7990625 4.684375 9.7990625 4.684375 8 5 C7.67 5.66 7.34 6.32 7 7 C7.78375 7.144375 8.5675 7.28875 9.375 7.4375 C12 8 12 8 14 9 C15.37342831 9.0689472 16.75002102 9.08467708 18.125 9.0625 C20.043125 9.0315625 20.043125 9.0315625 22 9 C22.144375 8.195625 22.28875 7.39125 22.4375 6.5625 C23 4 23 4 24 3 C22.68 2.34 21.36 1.68 20 1 C22.8125 0.75 22.8125 0.75 26 1 C27.875 3 27.875 3 29 5 C28.01 5.33 27.02 5.66 26 6 C26 7.32 26 8.64 26 10 C26.66 10.33 27.32 10.66 28 11 C25.89735027 13.10264973 21.57554314 12.27690374 18.6875 12.3125 C17.91470703 12.34150391 17.14191406 12.37050781 16.34570312 12.40039062 C12.49593987 12.44342323 10.62179181 12.46323967 7.45703125 10.10546875 C6 8 6 8 6 6 C4.68 5.67 3.36 5.34 2 5 C2 4.34 2 3.68 2 3 C1.01 2.67 0.02 2.34 -1 2 C-0.67 1.34 -0.34 0.68 0 0 Z " fill="#D38556" transform="translate(46,36)"/>
<path d="M0 0 C-0.165 1.11375 -0.33 2.2275 -0.5 3.375 C-1.0455458 6.72032033 -1.0455458 6.72032033 -1 9 C-2.65 9 -4.3 9 -6 9 C-6 9.66 -6 10.32 -6 11 C-10.07369424 13.03684712 -12.58937864 13.0257259 -17 12 C-17.5625 10.0625 -17.5625 10.0625 -18 8 C-17.67 7.67 -17.34 7.34 -17 7 C-16.95936168 5.33382885 -16.957279 3.66611905 -17 2 C-16.01 2.33 -15.02 2.66 -14 3 C-14 3.66 -14 4.32 -14 5 C-13.01 5 -12.02 5 -11 5 C-11 5.66 -11 6.32 -11 7 C-8.03 7.495 -8.03 7.495 -5 8 C-5.57452746 4.06924356 -5.57452746 4.06924356 -8 1 C-5.29120665 -0.35439668 -2.99066732 -0.06501451 0 0 Z " fill="#B75630" transform="translate(43,34)"/>
<path d="M0 0 C5.98487755 0.52042414 11.75705698 1.98075493 17 5 C18.29296875 7.13671875 18.29296875 7.13671875 19 9 C19.66 9 20.32 9 21 9 C21 9.66 21 10.32 21 11 C20.45859375 10.83628906 19.9171875 10.67257813 19.359375 10.50390625 C16.59777407 9.91409413 14.07181861 9.90390692 11.25 9.9375 C10.26515625 9.94652344 9.2803125 9.95554687 8.265625 9.96484375 C7.14414063 9.98224609 7.14414063 9.98224609 6 10 C6 9.01 6 8.02 6 7 C2.04 5.68 -1.92 4.36 -6 3 C-6 2.67 -6 2.34 -6 2 C-4.02 1.67 -2.04 1.34 0 1 C0 0.67 0 0.34 0 0 Z " fill="#783F33" transform="translate(77,15)"/>
<path d="M0 0 C1.875 1.5 1.875 1.5 3 3 C1.34237456 4.98702536 0.40771424 5.90988924 -2.15625 6.4765625 C-3.31640625 6.55003906 -3.31640625 6.55003906 -4.5 6.625 C-7.30202115 6.82114148 -9.29874545 7.09958182 -12 8 C-15.1875 7.0625 -15.1875 7.0625 -18 6 C-17.67 4.68 -17.34 3.36 -17 2 C-4.27983539 -0.53497942 -4.27983539 -0.53497942 0 0 Z " fill="#D29669" transform="translate(55,25)"/>
<path d="M0 0 C2.31 0 4.62 0 7 0 C7 0.99 7 1.98 7 3 C10.3 3 13.6 3 17 3 C17 3.66 17 4.32 17 5 C13.7 5.33 10.4 5.66 7 6 C6.67 6.99 6.34 7.98 6 9 C7.01320313 9.18175781 7.01320313 9.18175781 8.046875 9.3671875 C8.93890625 9.53476562 9.8309375 9.70234375 10.75 9.875 C12.07257813 10.11863281 12.07257813 10.11863281 13.421875 10.3671875 C15.86947744 10.96796264 17.80599857 11.77997117 20 13 C20 13.66 20 14.32 20 15 C18.1875 15.6875 18.1875 15.6875 16 16 C15.38125 15.3503125 15.38125 15.3503125 14.75 14.6875 C12.38368181 12.40569318 10.10460258 12.15716529 6.9375 11.52734375 C5 11 5 11 2 9 C1.95833998 6.6670386 1.95833998 4.3329614 2 2 C1.34 1.34 0.68 0.68 0 0 Z " fill="#CB723C" transform="translate(59,25)"/>
<path d="M0 0 C2.58373234 0.30944701 5.16695133 0.62243957 7.75 0.9375 C8.47960938 1.02451172 9.20921875 1.11152344 9.9609375 1.20117188 C17.60631453 2.13946815 17.60631453 2.13946815 20 3 C20.33 3.99 20.66 4.98 21 6 C12.42 6 3.84 6 -5 6 C-4.01 5.34 -3.02 4.68 -2 4 C-1.34 3.34 -0.68 2.68 0 2 C0 1.34 0 0.68 0 0 Z " fill="#AB4A26" transform="translate(53,48)"/>
<path d="M0 0 C0 0.66 0 1.32 0 2 C0.66 2 1.32 2 2 2 C3.625 4 3.625 4 5 6 C-1.55649005 6.25217269 -1.55649005 6.25217269 -3.765625 4.99609375 C-6.97263044 3.56639727 -10.06231988 3.8335248 -13.5 3.9375 C-20.39173789 4.05130852 -27.13943799 3.72763536 -34 3 C-34 2.67 -34 2.34 -34 2 C-30.3965669 1.65841653 -26.79216548 1.32830184 -23.1875 1 C-22.18267578 0.90460937 -21.17785156 0.80921875 -20.14257812 0.7109375 C-13.40797288 0.10460648 -6.76066746 -0.12017481 0 0 Z " fill="#B14E22" transform="translate(69,19)"/>
<path d="M0 0 C11.88 0 23.76 0 36 0 C36 0.33 36 0.66 36 1 C35.06933716 1.03758423 35.06933716 1.03758423 34.11987305 1.07592773 C31.30887603 1.19196721 28.49820759 1.31465759 25.6875 1.4375 C24.71103516 1.47681641 23.73457031 1.51613281 22.72851562 1.55664062 C21.79072266 1.59853516 20.85292969 1.64042969 19.88671875 1.68359375 C18.59060669 1.73858032 18.59060669 1.73858032 17.26831055 1.79467773 C14.8352174 1.92747354 14.8352174 1.92747354 12 3 C10.59335074 3.14492123 9.1818867 3.24628931 7.76953125 3.31640625 C6.96708984 3.35830078 6.16464844 3.40019531 5.33789062 3.44335938 C4.50451172 3.48267578 3.67113281 3.52199219 2.8125 3.5625 C1.96751953 3.60568359 1.12253906 3.64886719 0.25195312 3.69335938 C-1.83184433 3.79931518 -3.91590103 3.9001502 -6 4 C-3 2 -3 2 0 2 C0 1.34 0 0.68 0 0 Z " fill="#302226" transform="translate(39,15)"/>
<path d="M0 0 C0.99 0 1.98 0 3 0 C3.33 0.66 3.66 1.32 4 2 C4.99 2.33 5.98 2.66 7 3 C9.1875 4.9375 9.1875 4.9375 11 7 C11 7.66 11 8.32 11 9 C10.01 9 9.02 9 8 9 C8 9.66 8 10.32 8 11 C8.66 11.33 9.32 11.66 10 12 C7.36 12.99 4.72 13.98 2 15 C2.33 11.04 2.66 7.08 3 3 C1.68 3 0.36 3 -1 3 C-0.67 2.01 -0.34 1.02 0 0 Z " fill="#C56D40" transform="translate(45,39)"/>
<path d="M0 0 C0.33 1.32 0.66 2.64 1 4 C-0.32 4 -1.64 4 -3 4 C-3 4.66 -3 5.32 -3 6 C-2.01 6.33 -1.02 6.66 0 7 C-2.75 8.625 -2.75 8.625 -6 10 C-8.375 9.1875 -8.375 9.1875 -10 8 C-9.67 5.69 -9.34 3.38 -9 1 C-5.8035914 -0.06546953 -3.34252724 -0.07427838 0 0 Z " fill="#4D241A" transform="translate(94,24)"/>
<path d="M0 0 C0.90492187 0.02320312 1.80984375 0.04640625 2.7421875 0.0703125 C4.10730469 0.09738281 4.10730469 0.09738281 5.5 0.125 C6.19867188 0.14820312 6.89734375 0.17140625 7.6171875 0.1953125 C5.0517281 2.7607719 3.14032082 2.73577337 -0.3828125 3.1953125 C-0.3828125 3.8553125 -0.3828125 4.5153125 -0.3828125 5.1953125 C-1.2078125 5.6490625 -2.0328125 6.1028125 -2.8828125 6.5703125 C-4.1203125 7.3746875 -4.1203125 7.3746875 -5.3828125 8.1953125 C-5.3828125 9.5153125 -5.3828125 10.8353125 -5.3828125 12.1953125 C-5.3828125 12.8553125 -5.3828125 13.5153125 -5.3828125 14.1953125 C-6.3728125 13.8653125 -7.3628125 13.5353125 -8.3828125 13.1953125 C-9.61358173 6.7953125 -9.61358173 6.7953125 -8.4453125 3.7578125 C-8.0946875 3.2421875 -7.7440625 2.7265625 -7.3828125 2.1953125 C-6.3928125 2.1953125 -5.4028125 2.1953125 -4.3828125 2.1953125 C-2.3828125 0.1953125 -2.3828125 0.1953125 0 0 Z " fill="#8E5546" transform="translate(29.3828125,21.8046875)"/>
<path d="M0 0 C2.97 0 5.94 0 9 0 C9 0.66 9 1.32 9 2 C10.11375 2.12375 11.2275 2.2475 12.375 2.375 C16 3 16 3 18 5 C11.23893038 6.27567351 5.68650564 5.48725585 -1 4 C-0.67 2.68 -0.34 1.36 0 0 Z " fill="#B95623" transform="translate(66,30)"/>
<path d="M0 0 C0.66 0 1.32 0 2 0 C2 0.99 2 1.98 2 3 C2.99 3.33 3.98 3.66 5 4 C4.01 5.485 4.01 5.485 3 7 C3.66 7 4.32 7 5 7 C4.67 7.99 4.34 8.98 4 10 C1.75 10.6875 1.75 10.6875 -1 11 C-3.3125 9.75 -3.3125 9.75 -5 8 C-5 7.01 -5 6.02 -5 5 C-4.01 5 -3.02 5 -2 5 C-2.33 3.68 -2.66 2.36 -3 1 C-2.34 1.33 -1.68 1.66 -1 2 C-0.67 1.34 -0.34 0.68 0 0 Z " fill="#8A92A2" transform="translate(35,48)"/>
<path d="M0 0 C1.65 0 3.3 0 5 0 C2.25 6.875 2.25 6.875 0 8 C-3.95562822 8.25797575 -6.59659693 8.09440189 -10 6 C-9.67 5.01 -9.34 4.02 -9 3 C-6.36 3 -3.72 3 -1 3 C-0.67 2.01 -0.34 1.02 0 0 Z " fill="#D8966A" transform="translate(66,38)"/>
<path d="M0 0 C0.99 0.33 1.98 0.66 3 1 C3 1.66 3 2.32 3 3 C3.99 3 4.98 3 6 3 C6.144375 3.598125 6.28875 4.19625 6.4375 4.8125 C6.8872439 6.56150404 7.42892341 8.28677023 8 10 C4.71303767 10.79953138 3.28976808 11.09658936 0 10 C-0.75 8 -0.75 8 -1 6 C-0.67 5.67 -0.34 5.34 0 5 C0.04063832 3.33382885 0.042721 1.66611905 0 0 Z " fill="#A84D2D" transform="translate(26,36)"/>
<path d="M0 0 C1.66666667 0 3.33333333 0 5 0 C5 0.99 5 1.98 5 3 C5.66 3.33 6.32 3.66 7 4 C6.01 4 5.02 4 4 4 C4 4.66 4 5.32 4 6 C4.99 5.67 5.98 5.34 7 5 C5.54728878 8.75283733 5.54728878 8.75283733 3.0625 9.875 C1 10 1 10 -2 8 C-1.34 6.68 -0.68 5.36 0 4 C-0.66 3.67 -1.32 3.34 -2 3 C-1.34 3 -0.68 3 0 3 C0 2.01 0 1.02 0 0 Z " fill="#7A8192" transform="translate(95,49)"/>
<path d="M0 0 C0.33 0.66 0.66 1.32 1 2 C2.65 2 4.3 2 6 2 C6 2.33 6 2.66 6 3 C2.37 3.66 -1.26 4.32 -5 5 C-5.33 5.99 -5.66 6.98 -6 8 C-7.32 8 -8.64 8 -10 8 C-10 6.02 -10 4.04 -10 2 C-6.7 1.34 -3.4 0.68 0 0 Z " fill="#C47A4C" transform="translate(43,23)"/>
<path d="M0 0 C0 0.66 0 1.32 0 2 C3.63 2 7.26 2 11 2 C11 2.33 11 2.66 11 3 C8.68756208 3.02685412 6.3750373 3.04632841 4.0625 3.0625 C2.77472656 3.07410156 1.48695312 3.08570313 0.16015625 3.09765625 C-3 3 -3 3 -4 2 C-5.69141656 2.08963062 -7.37959602 2.24577676 -9.0625 2.4375 C-9.98160156 2.53933594 -10.90070312 2.64117188 -11.84765625 2.74609375 C-12.91306641 2.87177734 -12.91306641 2.87177734 -14 3 C-14 4.98 -14 6.96 -14 9 C-15.0625 7.1875 -15.0625 7.1875 -16 5 C-15 2 -15 2 -13.0625 0.8125 C-8.70065683 -0.3447237 -4.4860872 -0.15679528 0 0 Z " fill="#C06A38" transform="translate(47,22)"/>
<path d="M0 0 C0.33 0.66 0.66 1.32 1 2 C0.01 2.33 -0.98 2.66 -2 3 C-1.67 3.66 -1.34 4.32 -1 5 C-1.67546875 5.18175781 -2.3509375 5.36351562 -3.046875 5.55078125 C-3.93890625 5.80214844 -4.8309375 6.05351562 -5.75 6.3125 C-6.63171875 6.55613281 -7.5134375 6.79976562 -8.421875 7.05078125 C-11.05772505 8.02125331 -12.85407326 9.21005644 -15 11 C-14.5625 8.25 -14.5625 8.25 -13 5 C-8.99006411 2.48103832 -4.5922498 1.05894345 0 0 Z " fill="#827374" transform="translate(38,15)"/>
<path d="M0 0 C1.65 0 3.3 0 5 0 C5 0.66 5 1.32 5 2 C5.66 2.33 6.32 2.66 7 3 C6.67 4.32 6.34 5.64 6 7 C2.7 6.34 -0.6 5.68 -4 5 C-3.67 4.34 -3.34 3.68 -3 3 C-2.34 3 -1.68 3 -1 3 C-0.67 2.01 -0.34 1.02 0 0 Z " fill="#C06032" transform="translate(83,47)"/>
<path d="M0 0 C1.6875 1.5625 1.6875 1.5625 3 3 C2.67 3.99 2.34 4.98 2 6 C-1.3 5.67 -4.6 5.34 -8 5 C-8 4.01 -8 3.02 -8 2 C-7.34 2 -6.68 2 -6 2 C-6 1.34 -6 0.68 -6 0 C-3 -1 -3 -1 0 0 Z " fill="#903F28" transform="translate(104,36)"/>
<path d="M0 0 C2.14729141 0.28073073 4.29283193 0.57488499 6.4375 0.875 C7.63246094 1.03742187 8.82742187 1.19984375 10.05859375 1.3671875 C11.51458984 1.68042969 11.51458984 1.68042969 13 2 C13.33 2.66 13.66 3.32 14 4 C6.74 4 -0.52 4 -8 4 C-8 3.67 -8 3.34 -8 3 C-5.69 3 -3.38 3 -1 3 C-0.67 2.01 -0.34 1.02 0 0 Z " fill="#8A3A24" transform="translate(60,50)"/>
<path d="M0 0 C3.63 0.33 7.26 0.66 11 1 C11 1.99 11 2.98 11 4 C10.01 4 9.02 4 8 4 C7.67 4.99 7.34 5.98 7 7 C6.60167969 6.50886719 6.20335938 6.01773438 5.79296875 5.51171875 C3.4878245 3.56816575 2.2803281 3.683464 -0.6875 3.8125 C-1.89986328 3.85310547 -1.89986328 3.85310547 -3.13671875 3.89453125 C-3.75160156 3.92933594 -4.36648437 3.96414062 -5 4 C-5 3.67 -5 3.34 -5 3 C-3.35 2.67 -1.7 2.34 0 2 C0 1.34 0 0.68 0 0 Z " fill="#BB6946" transform="translate(99,32)"/>
<path d="M0 0 C5.98487755 0.52042414 11.75705698 1.98075493 17 5 C18.29296875 7.13671875 18.29296875 7.13671875 19 9 C19.66 9 20.32 9 21 9 C21 9.66 21 10.32 21 11 C20.01 11 19.02 11 18 11 C17.77570313 10.36578125 17.55140625 9.7315625 17.3203125 9.078125 C16.16214243 6.77983843 16.16214243 6.77983843 13.6171875 6.171875 C12.71226563 6.03265625 11.80734375 5.8934375 10.875 5.75 C9.96492188 5.60046875 9.05484375 5.4509375 8.1171875 5.296875 C7.41851562 5.19890625 6.71984375 5.1009375 6 5 C6 4.34 6 3.68 6 3 C4.02 2.34 2.04 1.68 0 1 C0 0.67 0 0.34 0 0 Z " fill="#B8AAA7" transform="translate(77,15)"/>
<path d="M0 0 C0.33 0.99 0.66 1.98 1 3 C3.79172239 4.03316488 3.79172239 4.03316488 7.0625 4.6875 C8.71958984 5.06455078 8.71958984 5.06455078 10.41015625 5.44921875 C11.26480469 5.63097656 12.11945313 5.81273437 13 6 C13 7.65 13 9.3 13 11 C11.68 10.67 10.36 10.34 9 10 C9.99 10 10.98 10 12 10 C12 9.01 12 8.02 12 7 C7.05 6.67 2.1 6.34 -3 6 C-3 3 -3 3 -1.5 1.3125 C-0.7575 0.6628125 -0.7575 0.6628125 0 0 Z " fill="#CFBFBB" transform="translate(98,26)"/>
<path d="M0 0 C-0.33 1.32 -0.66 2.64 -1 4 C-4.96 4 -8.92 4 -13 4 C-13 3.34 -13 2.68 -13 2 C-8.50343896 -0.24828052 -4.92127034 -0.16682272 0 0 Z " fill="#DAA377" transform="translate(53,27)"/>
<path d="M0 0 C0.66 0 1.32 0 2 0 C2.66 1.98 3.32 3.96 4 6 C7.44534004 6.86133501 9.60379646 6.93688374 13 6 C13.66 6.33 14.32 6.66 15 7 C15 7.66 15 8.32 15 9 C13.06318839 9.08107583 11.1254066 9.13922475 9.1875 9.1875 C8.10855469 9.22230469 7.02960938 9.25710937 5.91796875 9.29296875 C3 9 3 9 1.125 7.6875 C-0.55634713 5.1654793 -0.19651668 2.94775013 0 0 Z " fill="#22252F" transform="translate(90,51)"/>
<path d="M0 0 C1.11375 0.185625 2.2275 0.37125 3.375 0.5625 C6.82568861 1.31680657 6.82568861 1.31680657 9 0 C10.99960012 -0.039992 13.00047242 -0.04346799 15 0 C14.25 1.9375 14.25 1.9375 13 4 C10.45326014 5.07231152 9.28693339 5.094536 6.640625 4.22265625 C5.85171875 3.83980469 5.0628125 3.45695312 4.25 3.0625 C3.45078125 2.68222656 2.6515625 2.30195312 1.828125 1.91015625 C1.22484375 1.60980469 0.6215625 1.30945312 0 1 C0 0.67 0 0.34 0 0 Z " fill="#CE8961" transform="translate(37,31)"/>
<path d="M0 0 C1.65 0 3.3 0 5 0 C5.125 3.375 5.125 3.375 5 7 C4.34 7.66 3.68 8.32 3 9 C2.01 8.67 1.02 8.34 0 8 C0.33 7.34 0.66 6.68 1 6 C0.34 6 -0.32 6 -1 6 C-0.67 4.02 -0.34 2.04 0 0 Z " fill="#4D4C58" transform="translate(100,49)"/>
<path d="M0 0 C0.99 0.33 1.98 0.66 3 1 C2.67 2.32 2.34 3.64 2 5 C1.34 5 0.68 5 0 5 C0 6.32 0 7.64 0 9 C0.66 9.33 1.32 9.66 2 10 C0.02 10 -1.96 10 -4 10 C-4 10.66 -4 11.32 -4 12 C-4.66 12 -5.32 12 -6 12 C-6 11.01 -6 10.02 -6 9 C-4.68 8.34 -3.36 7.68 -2 7 C-2 5.02 -2 3.04 -2 1 C-1.34 0.67 -0.68 0.34 0 0 Z " fill="#C56A3D" transform="translate(43,34)"/>
<path d="M0 0 C2.53053501 0.27240887 5.00907412 0.62774795 7.5078125 1.109375 C7.5078125 1.439375 7.5078125 1.769375 7.5078125 2.109375 C6.7034375 2.233125 5.8990625 2.356875 5.0703125 2.484375 C3.801875 2.79375 3.801875 2.79375 2.5078125 3.109375 C2.1778125 3.769375 1.8478125 4.429375 1.5078125 5.109375 C-1.1321875 5.109375 -3.7721875 5.109375 -6.4921875 5.109375 C-4.79620123 1.94867332 -3.7404579 0.16415803 0 0 Z " fill="#0B0B0D" transform="translate(45.4921875,54.890625)"/>
<path d="M0 0 C0 0.33 0 0.66 0 1 C-0.928125 1.268125 -1.85625 1.53625 -2.8125 1.8125 C-6.53041426 3.15921676 -6.53041426 3.15921676 -9 6 C-9.7269226 9.10839021 -9.7269226 9.10839021 -10 12 C-10.66 12 -11.32 12 -12 12 C-12 11.34 -12 10.68 -12 10 C-14.31 10 -16.62 10 -19 10 C-19 9.67 -19 9.34 -19 9 C-16.36 9 -13.72 9 -11 9 C-10.9175 8.2575 -10.835 7.515 -10.75 6.75 C-9.11256379 0.74606724 -5.93398754 -0.53945341 0 0 Z " fill="#58342C" transform="translate(100,45)"/>
<path d="M0 0 C0.66 0.66 1.32 1.32 2 2 C1.67 2.99 1.34 3.98 1 5 C-4.28 4.67 -9.56 4.34 -15 4 C-11.57905758 1.71937172 -10.31812778 1.78074993 -6.3125 1.875 C-4.82169922 1.90207031 -4.82169922 1.90207031 -3.30078125 1.9296875 C-2.54152344 1.95289063 -1.78226563 1.97609375 -1 2 C-0.67 1.34 -0.34 0.68 0 0 Z " fill="#C5A49A" transform="translate(107,39)"/>
<path d="M0 0 C0.625 1.75 0.625 1.75 1 4 C0.690625 4.5775 0.38125 5.155 0.0625 5.75 C-1.55389504 9.1729542 -1.12535919 12.23922443 -1 16 C-3.8125 17.125 -3.8125 17.125 -7 18 C-7.99 17.34 -8.98 16.68 -10 16 C-7.69 16 -5.38 16 -3 16 C-3.2784375 15.2265625 -3.2784375 15.2265625 -3.5625 14.4375 C-4.37786372 9.89475926 -3.58834262 6.10608413 -1.4375 2.0625 C-0.963125 1.381875 -0.48875 0.70125 0 0 Z " fill="#CFCDCD" transform="translate(108,44)"/>
<path d="M0 0 C5.61 0.66 11.22 1.32 17 2 C16.67 2.99 16.34 3.98 16 5 C16 4.34 16 3.68 16 3 C15.01 3.185625 14.02 3.37125 13 3.5625 C8.82912322 4.17661683 5.14965731 3.65520905 1 3 C0.67 2.01 0.34 1.02 0 0 Z " fill="#B96F53" transform="translate(91,42)"/>
<path d="M0 0 C0.66 0.33 1.32 0.66 2 1 C1.67 1.66 1.34 2.32 1 3 C2.32 3 3.64 3 5 3 C5 5 5 5 3.25 7.1875 C1 9 1 9 -1.1875 8.9375 C-3 8 -3 8 -4 5 C-2.68 4.67 -1.36 4.34 0 4 C0 2.68 0 1.36 0 0 Z " fill="#CF855D" transform="translate(43,39)"/>
<path d="M0 0 C0.99 0 1.98 0 3 0 C2.67 0.99 2.34 1.98 2 3 C1.34 3 0.68 3 0 3 C-0.12375 3.78375 -0.2475 4.5675 -0.375 5.375 C-1 8 -1 8 -3 10 C-4.42944945 7.64561267 -5.08661261 6.51967567 -4.625 3.75 C-4.41875 3.1725 -4.2125 2.595 -4 2 C-2.68 2 -1.36 2 0 2 C0 1.34 0 0.68 0 0 Z " fill="#773F31" transform="translate(95,26)"/>
<path d="M0 0 C1.32 0.66 2.64 1.32 4 2 C3.01 2 2.02 2 1 2 C1 2.66 1 3.32 1 4 C1.66 4.33 2.32 4.66 3 5 C0.36 5.99 -2.28 6.98 -5 8 C-4.1875 5.5625 -4.1875 5.5625 -3 3 C-2.01 2.67 -1.02 2.34 0 2 C0 1.34 0 0.68 0 0 Z " fill="#BA5E33" transform="translate(52,46)"/>
<path d="M0 0 C-0.75 2.4375 -0.75 2.4375 -2 5 C-4.125 5.8125 -4.125 5.8125 -6 6 C-6 5.01 -6 4.02 -6 3 C-6.66 2.34 -7.32 1.68 -8 1 C-5.29120665 -0.35439668 -2.99066732 -0.06501451 0 0 Z " fill="#9F401F" transform="translate(43,34)"/>
<path d="M0 0 C0.99 0 1.98 0 3 0 C2.34 2.31 1.68 4.62 1 7 C-0.32 7.33 -1.64 7.66 -3 8 C-3 6.35 -3 4.7 -3 3 C-2.34 3 -1.68 3 -1 3 C-0.67 2.01 -0.34 1.02 0 0 Z " fill="#792C17" transform="translate(90,36)"/>
<path d="M0 0 C0.66 0.33 1.32 0.66 2 1 C1.67 2.32 1.34 3.64 1 5 C1.66 5 2.32 5 3 5 C3 3.68 3 2.36 3 1 C3.99 1.33 4.98 1.66 6 2 C6 3.65 6 5.3 6 7 C3.03 6.505 3.03 6.505 0 6 C-0.38218767 4.34385343 -0.71395102 2.67542976 -1 1 C-0.67 0.67 -0.34 0.34 0 0 Z " fill="#BD6643" transform="translate(32,35)"/>
<path d="M0 0 C1.27875 -0.061875 2.5575 -0.12375 3.875 -0.1875 C4.95394531 -0.23970703 4.95394531 -0.23970703 6.0546875 -0.29296875 C6.69664063 -0.19628906 7.33859375 -0.09960938 8 0 C8.66 0.99 9.32 1.98 10 3 C8.68 3.99 7.36 4.98 6 6 C4 4 2 2 0 0 Z " fill="#8F371C" transform="translate(82,33)"/>
<path d="M0 0 C2.3828125 -0.29296875 2.3828125 -0.29296875 5.125 -0.1875 C6.03507812 -0.16042969 6.94515625 -0.13335938 7.8828125 -0.10546875 C8.58148438 -0.07066406 9.28015625 -0.03585938 10 0 C7.50494038 2.49505962 6.32671112 2.35948376 2.875 2.625 C1.96492188 2.69976563 1.05484375 2.77453125 0.1171875 2.8515625 C-0.93082031 2.92503906 -0.93082031 2.92503906 -2 3 C-1.34 2.01 -0.68 1.02 0 0 Z " fill="#964D36" transform="translate(27,22)"/>
<path d="M0 0 C0.66 0 1.32 0 2 0 C2 0.99 2 1.98 2 3 C2.66 3.33 3.32 3.66 4 4 C3.01 4 2.02 4 1 4 C1 4.66 1 5.32 1 6 C1.99 5.67 2.98 5.34 4 5 C3.34 6.32 2.68 7.64 2 9 C1.34 9 0.68 9 0 9 C-1.125 2.25 -1.125 2.25 0 0 Z " fill="#959CAC" transform="translate(98,49)"/>
<path d="M0 0 C0.99 0.66 1.98 1.32 3 2 C3 2.99 3 3.98 3 5 C1.125 6.0625 1.125 6.0625 -1 7 C-1.66 6.67 -2.32 6.34 -3 6 C-1.125 1.125 -1.125 1.125 0 0 Z " fill="#3D3E49" transform="translate(41,49)"/>
<path d="M0 0 C1.32 0.99 2.64 1.98 4 3 C2.6875 4.5 2.6875 4.5 1 6 C0.01 6 -0.98 6 -2 6 C-2 5.34 -2 4.68 -2 4 C-2.99 4.33 -3.98 4.66 -5 5 C-5.33 4.34 -5.66 3.68 -6 3 C-5.195625 2.87625 -4.39125 2.7525 -3.5625 2.625 C-2.716875 2.41875 -1.87125 2.2125 -1 2 C-0.67 1.34 -0.34 0.68 0 0 Z " fill="#A95334" transform="translate(90,43)"/>
<path d="M0 0 C0.99 0 1.98 0 3 0 C2.67 1.65 2.34 3.3 2 5 C0.35 5 -1.3 5 -3 5 C-3 4.01 -3 3.02 -3 2 C-2.01 2 -1.02 2 0 2 C0 1.34 0 0.68 0 0 Z " fill="#CC8057" transform="translate(80,41)"/>
<path d="M0 0 C-0.66 1.65 -1.32 3.3 -2 5 C-3.32 5 -4.64 5 -6 5 C-6 3.68 -6 2.36 -6 1 C-4 0 -4 0 0 0 Z " fill="#BA5627" transform="translate(78,41)"/>
<path d="M0 0 C0.99 0.33 1.98 0.66 3 1 C2.34 1 1.68 1 1 1 C1 2.32 1 3.64 1 5 C1.66 5.33 2.32 5.66 3 6 C2 7 2 7 -0.28515625 7.09765625 C-1.65994141 7.08025391 -1.65994141 7.08025391 -3.0625 7.0625 C-3.98160156 7.05347656 -4.90070313 7.04445313 -5.84765625 7.03515625 C-6.55792969 7.02355469 -7.26820312 7.01195312 -8 7 C-8 6.67 -8 6.34 -8 6 C-5.69 6 -3.38 6 -1 6 C-0.67 4.02 -0.34 2.04 0 0 Z " fill="#CF7843" transform="translate(71,41)"/>
<path d="M0 0 C1.32 0 2.64 0 4 0 C4 0.99 4 1.98 4 3 C5.65 3 7.3 3 9 3 C8.34 3.66 7.68 4.32 7 5 C3.875 4.625 3.875 4.625 1 4 C0.67 2.68 0.34 1.36 0 0 Z " fill="#914835" transform="translate(25,42)"/>
<path d="M0 0 C1.98 0 3.96 0 6 0 C6 1.32 6 2.64 6 4 C3.03 3.505 3.03 3.505 0 3 C0 2.01 0 1.02 0 0 Z " fill="#5A3731" transform="translate(100,38)"/>
<path d="M0 0 C2.31 0 4.62 0 7 0 C7 0.99 7 1.98 7 3 C6.01 3 5.02 3 4 3 C3.67 3.99 3.34 4.98 3 6 C2.87625 5.195625 2.7525 4.39125 2.625 3.5625 C2.315625 2.2940625 2.315625 2.2940625 2 1 C1.34 0.67 0.68 0.34 0 0 Z " fill="#9E6E5F" transform="translate(103,33)"/>
<path d="M0 0 C2.00720923 0.28674418 4.0085944 0.61866701 6 1 C6 2.32 6 3.64 6 5 C3.625 4.6875 3.625 4.6875 1 4 C0.34 3.01 -0.32 2.02 -1 1 C-0.67 0.67 -0.34 0.34 0 0 Z " fill="#687082" transform="translate(31,54)"/>
<path d="M0 0 C2.64 0.33 5.28 0.66 8 1 C4.81237635 3.12508244 2.73487777 3.5020163 -1 4 C-0.67 2.68 -0.34 1.36 0 0 Z " fill="#B95A34" transform="translate(94,32)"/>
<path d="M0 0 C0.66 0.99 1.32 1.98 2 3 C1.67 3.66 1.34 4.32 1 5 C1.99 4.67 2.98 4.34 4 4 C3.67 4.99 3.34 5.98 3 7 C1.68 7 0.36 7 -1 7 C-0.67 4.69 -0.34 2.38 0 0 Z " fill="#974126" transform="translate(86,39)"/>
<path d="M0 0 C4.92307692 4.30769231 4.92307692 4.30769231 5.3125 7.8125 C5.209375 8.534375 5.10625 9.25625 5 10 C4.67 8.68 4.34 7.36 4 6 C3.01 6.33 2.02 6.66 1 7 C0 6 0 6 -0.0625 2.9375 C-0.041875 1.968125 -0.02125 0.99875 0 0 Z " fill="#96685D" transform="translate(19,31)"/>
<path d="M0 0 C4.875 1.75 4.875 1.75 6 4 C6.99 4.66 7.98 5.32 9 6 C6.75 6.25 6.75 6.25 4 6 C1.6875 4.125 1.6875 4.125 0 2 C0 1.34 0 0.68 0 0 Z " fill="#CD7849" transform="translate(52,42)"/>
<path d="M0 0 C0.99 0 1.98 0 3 0 C5 3 5 3 5 6 C4.34 6 3.68 6 3 6 C3 5.01 3 4.02 3 3 C1.68 3 0.36 3 -1 3 C-0.67 2.01 -0.34 1.02 0 0 Z " fill="#B55C32" transform="translate(45,39)"/>
<path d="M0 0 C2.31 0.33 4.62 0.66 7 1 C7.33 1.99 7.66 2.98 8 4 C7.34 4 6.68 4 6 4 C5.67 4.66 5.34 5.32 5 6 C4.67 5.34 4.34 4.68 4 4 C4.33 3.34 4.66 2.68 5 2 C3.35 1.67 1.7 1.34 0 1 C0 0.67 0 0.34 0 0 Z " fill="#B7572D" transform="translate(80,35)"/>
<path d="M0 0 C0.99 0.33 1.98 0.66 3 1 C3 2.32 3 3.64 3 5 C0.69 5 -1.62 5 -4 5 C-3.01 4.34 -2.02 3.68 -1 3 C-0.67 2.01 -0.34 1.02 0 0 Z " fill="#A04627" transform="translate(80,25)"/>
<path d="M0 0 C0.66 0 1.32 0 2 0 C2.66 2.31 3.32 4.62 4 7 C2.68 6.67 1.36 6.34 0 6 C0 4.02 0 2.04 0 0 Z " fill="#2D3340" transform="translate(90,51)"/>
<path d="M0 0 C1.65 0 3.3 0 5 0 C5 0.66 5 1.32 5 2 C5.66 2.33 6.32 2.66 7 3 C4.69 3 2.38 3 0 3 C0 2.01 0 1.02 0 0 Z " fill="#B85833" transform="translate(83,47)"/>
</svg>
